# Hierarchical Translation and Rotation (.htr) file
# Generated by EVaRT
[Header]
FileType htr
DataType HTRS
FileVersion 1
NumSegments 23
NumFrames 5
DataFrameRate 120
EulerRotationOrder ZYX
CalibrationUnits mm
RotationUnits Degrees
GlobalAxisofGravity Y
BoneLengthAxis Y
ScaleFactor 1
[SegmentNames&Hierarchy]
#CHILD            PARENT
DaveRoot          GLOBAL
Spine1            DaveRoot
Spine2            Spine1
Spine3            Spine2
Spine4            Spine3
Neck              Spine4
Head              Neck
LClavicle         Spine4
LUpperArm         LClavicle
LLowerArm         LUpperArm
LHand             LLowerArm
RClavicle         Spine4
RUpperArm         RClavicle
RLowerArm         RUpperArm
RHand             RLowerArm
RUpperLeg         DaveRoot
RLowerLeg         RUpperLeg
RFoot             RLowerLeg
RToes             RFoot
LUpperLeg         DaveRoot
LLowerLeg         LUpperLeg
LFoot             LLowerLeg
LToes             LFoot
[BasePosition]
#SegmentName      Tx   Ty   Tz   Rx   Ry   Rz   BoneLength
DaveRoot          209.518790	1014.822220	-351.309218	15.931515	2.618173	-0.612188	100.000000
Spine1            0.000000	100.000000	0.000000	-16.793488	0.293500	-0.473802	100.000000
Spine2            0.000000	100.000000	0.000000	4.672625	0.349043	-0.357343	100.000000
Spine3            0.000000	100.000000	0.000000	10.998894	0.386292	-0.316706	100.000000
Spine4            0.000000	100.000000	0.000000	12.138707	1.462162	1.217268	100.000000
Neck              0.000000	100.000000	0.000000	12.810480	14.955418	1.620949	80.000000
Head              0.000000	80.000000	0.000000	-44.031424	-2.973179	-2.367844	200.000000
LClavicle         0.000000	100.000000	0.000000	-0.941684	-2.086145	-99.536471	200.000000
LUpperArm         0.000000	200.000000	0.000000	10.837043	12.737179	14.309854	300.000000
LLowerArm         0.000000	300.000000	0.000000	2.090205	2.175812	1.895763	200.000000
LHand             0.000000	200.000000	0.000000	-1.396534	-1.768569	8.793625	120.000000
RClavicle         0.000000	100.000000	0.000000	1.262055	-3.879913	108.124298	200.000000
RUpperArm         0.000000	200.000000	0.000000	10.866823	4.985308	-18.992585	300.000000
RLowerArm         0.000000	300.000000	0.000000	5.968673	-3.682026	-7.348670	200.000000
RHand             0.000000	200.000000	0.000000	-1.057110	-1.690862	-7.465634	120.000000
RUpperLeg         -115.911102	-10.000000	31.058285	24.909801	27.531946	-169.439912	530.000000
RLowerLeg         0.000000	530.000000	0.000000	-7.321572	0.479387	-2.520024	460.000000
RFoot             0.000000	460.000000	0.000000	82.352420	-1.863170	1.930421	130.000000
RToes             0.000000	130.000000	0.000000	17.737744	0.005479	-0.002881	100.000000
LUpperLeg         115.911102	-10.000000	31.058285	23.717246	9.590578	-171.144790	530.000000
LLowerLeg         0.000000	530.000000	0.000000	-5.150575	-3.275937	3.046484	460.000000
LFoot             0.000000	460.000000	0.000000	77.933010	-13.262104	9.769004	130.000000
LToes             0.000000	130.000000	0.000000	27.000770	-0.000000	-0.000086	100.000000
#Beginning of Data.
[DaveRoot]
#Fr	Tx	Ty	Tz	Rx	Ry	Rz	SF
1076	-1926.254169	-197.542702	138.246008	-99.327700	45.914991	153.240106	1.000000	
1077	-1923.424699	-193.013973	139.729167	-98.654594	45.407352	153.161421	1.000000	
1078	-1920.898974	-188.944805	140.904393	-98.148888	44.990857	153.020986	1.000000	
1079	-1918.708904	-185.287938	141.730822	-97.725028	44.673307	152.864519	1.000000	
1080	-1916.826305	-181.989016	142.201391	-97.308892	44.453759	152.736933	1.000000	
[Spine1]
#Fr	Tx	Ty	Tz	Rx	Ry	Rz	SF
1076	0.000000	0.000000	0.000000	7.914904	-0.315294	3.753026	1.000000	
1077	0.000000	0.000000	0.000000	8.102816	-0.355985	3.654467	1.000000	
1078	0.000000	0.000000	0.000000	8.302806	-0.402687	3.536621	1.000000	
1079	0.000000	0.000000	0.000000	8.483375	-0.445860	3.398879	1.000000	
1080	0.000000	0.000000	0.000000	8.628058	-0.477429	3.243105	1.000000	
[Spine2]
#Fr	Tx	Ty	Tz	Rx	Ry	Rz	SF
1076	0.000000	0.000000	0.000000	7.914904	-0.315294	3.753026	1.000000	
1077	0.000000	0.000000	0.000000	8.102816	-0.355985	3.654467	1.000000	
1078	0.000000	0.000000	0.000000	8.302806	-0.402687	3.536621	1.000000	
1079	0.000000	0.000000	0.000000	8.483375	-0.445860	3.398879	1.000000	
1080	0.000000	0.000000	0.000000	8.628058	-0.477429	3.243105	1.000000	
[Spine3]
#Fr	Tx	Ty	Tz	Rx	Ry	Rz	SF
1076	0.000000	0.000000	0.000000	7.914904	-0.315294	3.753026	1.000000	
1077	0.000000	0.000000	0.000000	8.102816	-0.355985	3.654467	1.000000	
1078	0.000000	0.000000	0.000000	8.302806	-0.402687	3.536621	1.000000	
1079	0.000000	0.000000	0.000000	8.483375	-0.445860	3.398879	1.000000	
1080	0.000000	0.000000	0.000000	8.628058	-0.477429	3.243105	1.000000	
[Spine4]
#Fr	Tx	Ty	Tz	Rx	Ry	Rz	SF
1076	0.000000	0.000000	0.000000	7.914904	-0.315294	3.753026	1.000000	
1077	0.000000	0.000000	0.000000	8.102816	-0.355985	3.654467	1.000000	
1078	0.000000	0.000000	0.000000	8.302806	-0.402687	3.536621	1.000000	
1079	0.000000	0.000000	0.000000	8.483375	-0.445860	3.398879	1.000000	
1080	0.000000	0.000000	0.000000	8.628058	-0.477429	3.243105	1.000000	
[Neck]
#Fr	Tx	Ty	Tz	Rx	Ry	Rz	SF
1076	0.000000	0.000000	0.000000	-37.277447	-11.019384	-6.956942	1.000000	
1077	0.000000	0.000000	0.000000	-37.425121	-11.425565	-7.139400	1.000000	
1078	0.000000	0.000000	0.000000	-37.466691	-11.800379	-7.318142	1.000000	
1079	0.000000	0.000000	0.000000	-37.370669	-12.119467	-7.472016	1.000000	
1080	0.000000	0.000000	0.000000	-37.142573	-12.369346	-7.590812	1.000000	
[Head]
#Fr	Tx	Ty	Tz	Rx	Ry	Rz	SF
1076	0.000000	0.000000	0.000000	-37.277447	-11.019384	-6.956942	1.000000	
1077	0.000000	0.000000	0.000000	-37.425121	-11.425565	-7.139400	1.000000	
1078	0.000000	0.000000	0.000000	-37.466691	-11.800379	-7.318142	1.000000	
1079	0.000000	0.000000	0.000000	-37.370669	-12.119467	-7.472016	1.000000	
1080	0.000000	0.000000	0.000000	-37.142573	-12.369346	-7.590812	1.000000	
[LClavicle]
#Fr	Tx	Ty	Tz	Rx	Ry	Rz	SF
1076	0.000000	0.000000	0.000000	8.070261	-1.135779	3.040248	1.000000	
1077	0.000000	0.000000	0.000000	8.755292	-1.256292	3.184300	1.000000	
1078	0.000000	0.000000	0.000000	9.466357	-1.402755	3.434512	1.000000	
1079	0.000000	0.000000	0.000000	10.207410	-1.569704	3.732309	1.000000	
1080	0.000000	0.000000	0.000000	10.851314	-1.722714	3.995236	1.000000	
[LUpperArm]
#Fr	Tx	Ty	Tz	Rx	Ry	Rz	SF
1076	0.000000	0.000000	0.000000	19.664075	-16.031712	-35.699577	1.000000	
1077	0.000000	0.000000	0.000000	20.237856	-12.826414	-33.237784	1.000000	
1078	0.000000	0.000000	0.000000	20.686461	-10.695909	-31.563032	1.000000	
1079	0.000000	0.000000	0.000000	20.868600	-9.774378	-30.779551	1.000000	
1080	0.000000	0.000000	0.000000	21.046781	-9.948402	-30.783979	1.000000	
[LLowerArm]
#Fr	Tx	Ty	Tz	Rx	Ry	Rz	SF
1076	0.000000	0.000000	0.000000	4.555695	0.000000	0.000000	1.000000	
1077	0.000000	0.000000	0.000000	3.363834	-0.000000	0.000000	1.000000	
1078	0.000000	0.000000	0.000000	2.410174	-0.000000	0.000000	1.000000	
1079	0.000000	0.000000	0.000000	2.043297	-0.000000	0.000000	1.000000	
1080	0.000000	0.000000	0.000000	1.964438	-0.000000	0.000000	1.000000	
[LHand]
#Fr	Tx	Ty	Tz	Rx	Ry	Rz	SF
1076	0.000000	0.000000	0.000000	4.088183	0.000000	-0.000000	1.000000	
1077	0.000000	0.000000	0.000000	3.888724	0.000000	-0.000000	1.000000	
1078	0.000000	0.000000	0.000000	3.586200	0.000000	-0.000000	1.000000	
1079	0.000000	0.000000	0.000000	3.108328	0.000000	-0.000000	1.000000	
1080	0.000000	0.000000	0.000000	2.720875	0.000000	-0.000000	1.000000	
[RClavicle]
#Fr	Tx	Ty	Tz	Rx	Ry	Rz	SF
1076	0.000000	0.000000	0.000000	4.977539	0.582278	-6.980695	1.000000	
1077	0.000000	0.000000	0.000000	5.144871	0.626278	-7.247023	1.000000	
1078	0.000000	0.000000	0.000000	5.305317	0.674964	-7.555024	1.000000	
1079	0.000000	0.000000	0.000000	5.470179	0.727157	-7.874301	1.000000	
1080	0.000000	0.000000	0.000000	5.620079	0.776338	-8.164955	1.000000	
[RUpperArm]
#Fr	Tx	Ty	Tz	Rx	Ry	Rz	SF
1076	0.000000	0.000000	0.000000	13.288246	30.479850	-9.029786	1.000000	
1077	0.000000	0.000000	0.000000	13.129597	31.551867	-9.245195	1.000000	
1078	0.000000	0.000000	0.000000	12.795064	32.334258	-9.572449	1.000000	
1079	0.000000	0.000000	0.000000	12.300903	32.832816	-9.928460	1.000000	
1080	0.000000	0.000000	0.000000	11.748579	33.184923	-10.223170	1.000000	
[RLowerArm]
#Fr	Tx	Ty	Tz	Rx	Ry	Rz	SF
1076	0.000000	0.000000	0.000000	-2.068699	-0.000000	-0.000000	1.000000	
1077	0.000000	0.000000	0.000000	-1.937728	-0.000000	-0.000000	1.000000	
1078	0.000000	0.000000	0.000000	-1.991803	-0.000000	-0.000000	1.000000	
1079	0.000000	0.000000	0.000000	-2.184141	-0.000000	-0.000000	1.000000	
1080	0.000000	0.000000	0.000000	-2.491473	-0.000000	-0.000000	1.000000	
[RHand]
#Fr	Tx	Ty	Tz	Rx	Ry	Rz	SF
1076	0.000000	0.000000	0.000000	-3.927994	29.035320	-13.685787	1.000000	
1077	0.000000	0.000000	0.000000	-4.129168	29.117871	-13.336069	1.000000	
1078	0.000000	0.000000	0.000000	-4.306710	29.605488	-12.676179	1.000000	
1079	0.000000	0.000000	0.000000	-4.421322	30.522614	-11.775480	1.000000	
1080	0.000000	0.000000	0.000000	-4.387452	31.743342	-10.704448	1.000000	
[RUpperLeg]
#Fr	Tx	Ty	Tz	Rx	Ry	Rz	SF
1076	0.000000	0.000000	0.000000	95.917152	-38.978477	-20.097337	1.000000	
1077	0.000000	0.000000	0.000000	95.861197	-38.778055	-20.490685	1.000000	
1078	0.000000	0.000000	0.000000	95.708888	-38.587119	-20.874814	1.000000	
1079	0.000000	0.000000	0.000000	95.530133	-38.400990	-21.244866	1.000000	
1080	0.000000	0.000000	0.000000	95.380670	-38.222430	-21.595272	1.000000	
[RLowerLeg]
#Fr	Tx	Ty	Tz	Rx	Ry	Rz	SF
1076	0.000000	0.000000	0.000000	-38.005346	0.000000	-0.000000	1.000000	
1077	0.000000	0.000000	0.000000	-36.111155	-0.000000	-0.000000	1.000000	
1078	0.000000	0.000000	0.000000	-34.297805	-0.000000	-0.000000	1.000000	
1079	0.000000	0.000000	0.000000	-32.595462	0.000000	-0.000000	1.000000	
1080	0.000000	0.000000	0.000000	-31.025039	-0.000000	-0.000000	1.000000	
[RFoot]
#Fr	Tx	Ty	Tz	Rx	Ry	Rz	SF
1076	0.000000	0.000000	0.000000	22.541652	-24.385138	-26.674795	1.000000	
1077	0.000000	0.000000	0.000000	21.414703	-25.001083	-26.307752	1.000000	
1078	0.000000	0.000000	0.000000	20.335961	-25.804201	-25.799838	1.000000	
1079	0.000000	0.000000	0.000000	19.320904	-26.574588	-25.040204	1.000000	
1080	0.000000	0.000000	0.000000	18.376271	-27.134246	-24.010076	1.000000	
[RToes]
#Fr	Tx	Ty	Tz	Rx	Ry	Rz	SF
1076	0.000000	0.000000	0.000000	-1.401197	0.000000	0.000000	1.000000	
1077	0.000000	0.000000	0.000000	-0.724824	0.000000	0.000000	1.000000	
1078	0.000000	0.000000	0.000000	-0.184267	0.000000	0.000000	1.000000	
1079	0.000000	0.000000	0.000000	0.008933	0.000000	0.000000	1.000000	
1080	0.000000	0.000000	0.000000	-0.237460	0.000000	0.000000	1.000000	
[LUpperLeg]
#Fr	Tx	Ty	Tz	Rx	Ry	Rz	SF
1076	0.000000	0.000000	0.000000	94.457489	-16.806730	3.099316	1.000000	
1077	0.000000	0.000000	0.000000	95.669875	-16.317667	3.650201	1.000000	
1078	0.000000	0.000000	0.000000	96.834126	-15.797811	3.994400	1.000000	
1079	0.000000	0.000000	0.000000	98.000965	-15.268060	4.125017	1.000000	
1080	0.000000	0.000000	0.000000	99.203099	-14.752437	4.039388	1.000000	
[LLowerLeg]
#Fr	Tx	Ty	Tz	Rx	Ry	Rz	SF
1076	0.000000	0.000000	0.000000	-69.805855	0.000000	0.000000	1.000000	
1077	0.000000	0.000000	0.000000	-70.115375	0.000000	0.000000	1.000000	
1078	0.000000	0.000000	0.000000	-70.458442	0.000000	0.000000	1.000000	
1079	0.000000	0.000000	0.000000	-70.821712	0.000000	0.000000	1.000000	
1080	0.000000	0.000000	0.000000	-71.180919	-0.000000	-0.000000	1.000000	
[LFoot]
#Fr	Tx	Ty	Tz	Rx	Ry	Rz	SF
1076	0.000000	0.000000	0.000000	16.075693	-0.219240	-2.300282	1.000000	
1077	0.000000	0.000000	0.000000	16.374514	-0.773509	-4.016462	1.000000	
1078	0.000000	0.000000	0.000000	16.726149	-1.456003	-5.792416	1.000000	
1079	0.000000	0.000000	0.000000	17.160772	-2.202183	-7.542274	1.000000	
1080	0.000000	0.000000	0.000000	17.687197	-2.965118	-9.222998	1.000000	
[LToes]
#Fr	Tx	Ty	Tz	Rx	Ry	Rz	SF
1076	0.000000	0.000000	0.000000	0.747063	-0.000000	-0.000000	1.000000	
1077	0.000000	0.000000	0.000000	0.685356	-0.000000	-0.000000	1.000000	
1078	0.000000	0.000000	0.000000	0.583802	-0.000000	-0.000000	1.000000	
1079	0.000000	0.000000	0.000000	0.426682	-0.000000	-0.000000	1.000000	
1080	0.000000	0.000000	0.000000	0.203859	-0.000000	-0.000000	1.000000	
